<svg width="24" height="24" viewBox="0 0 24 24" fill="none" xmlns="http://www.w3.org/2000/svg">
<g id="solar:camera-linear">
<g id="Group">
<path id="Vector" d="M12 16C13.6569 16 15 14.6569 15 13C15 11.3431 13.6569 10 12 10C10.3431 10 9 11.3431 9 13C9 14.6569 10.3431 16 12 16Z" stroke="#515151" stroke-width="1.5"/>
<path id="Vector_2" d="M9.778 21H14.222C17.343 21 18.904 21 20.025 20.265C20.5087 19.948 20.9253 19.5389 21.251 19.061C22 17.961 22 16.428 22 13.364C22 10.299 22 8.767 21.251 7.667C20.9253 7.18911 20.5087 6.78 20.025 6.463C19.305 5.99 18.403 5.821 17.022 5.761C16.363 5.761 15.796 5.271 15.667 4.636C15.5684 4.17087 15.3123 3.75404 14.9418 3.45595C14.5714 3.15787 14.1095 2.99681 13.634 3H10.366C9.378 3 8.527 3.685 8.333 4.636C8.204 5.271 7.637 5.761 6.978 5.761C5.598 5.821 4.696 5.991 3.975 6.463C3.49162 6.78006 3.07537 7.18917 2.75 7.667C2 8.767 2 10.299 2 13.364C2 16.428 2 17.96 2.749 19.061C3.073 19.537 3.489 19.946 3.975 20.265C5.096 21 6.657 21 9.778 21Z" stroke="#515151" stroke-width="1.5"/>
<path id="Vector_3" d="M19 10H18" stroke="#515151" stroke-width="1.5" stroke-linecap="round"/>
</g>
</g>
</svg>
